<?xml version="1.0" standalone="no"?>
<!DOCTYPE svg PUBLIC "-//W3C//DTD SVG 20010904//EN"
 "http://www.w3.org/TR/2001/REC-SVG-20010904/DTD/svg10.dtd">
<svg version="1.0" xmlns="http://www.w3.org/2000/svg"
 width="1280.000000pt" height="395.000000pt" viewBox="0 0 1280.000000 395.000000"
 preserveAspectRatio="xMidYMid meet">

<g transform="translate(0.000000,395.000000) scale(0.100000,-0.100000)"
fill="#000000" stroke="none">
<path d="M2047 2275 c-85 -146 -151 -267 -147 -270 13 -8 94 -14 203 -15 l97
0 222 -445 223 -445 135 0 c74 0 140 4 146 8 8 5 -43 113 -153 327 -90 176
-248 484 -350 685 -103 201 -194 378 -203 393 l-17 28 -156 -266z"/>
<path d="M1360 2504 c-157 -41 -253 -95 -356 -200 -142 -145 -204 -298 -204
-497 1 -203 65 -358 213 -509 29 -29 53 -51 54 -48 1 3 17 -8 36 -25 34 -30
115 -75 136 -75 6 0 11 -4 11 -10 0 -5 7 -7 15 -4 8 4 15 2 15 -4 0 -30 382
-44 412 -14 6 6 17 8 24 5 8 -3 14 0 14 7 0 7 8 9 20 5 11 -3 20 -2 20 4 0 5
23 17 50 26 28 9 50 21 50 26 0 5 5 9 11 9 6 0 16 6 24 12 7 7 28 24 45 37 83
64 130 123 185 231 52 104 75 201 75 317 0 145 17 133 -190 133 l-178 0 -25
-32 c-14 -18 -55 -64 -91 -103 -36 -38 -65 -76 -66 -82 0 -20 40 -25 179 -21
87 2 131 -1 131 -8 0 -5 -17 -46 -39 -90 -80 -165 -239 -264 -424 -264 -63 0
-209 34 -230 54 -7 6 -25 18 -41 26 -48 25 -128 121 -165 200 -35 73 -36 78
-36 197 0 84 4 126 13 135 6 6 12 18 12 25 0 34 48 109 111 173 38 38 73 70
78 70 5 0 17 7 25 16 9 8 25 16 36 17 11 1 20 5 20 10 0 4 5 5 10 2 6 -4 18
-1 27 7 12 10 76 14 272 16 141 1 261 4 267 6 10 4 134 216 134 230 0 3 -141
6 -312 5 -238 0 -326 -4 -368 -15z"/>
<path d="M3980 2307 c-37 -19 -54 -56 -46 -100 9 -46 38 -67 101 -69 41 -2 51
1 71 25 16 19 24 40 24 67 0 70 -81 112 -150 77z"/>
<path d="M10643 2301 c-40 -25 -50 -67 -28 -115 9 -19 24 -37 33 -40 31 -9 77
-10 100 -2 26 9 52 54 52 90 0 67 -94 107 -157 67z"/>
<path d="M3263 2285 c-146 -40 -246 -137 -296 -288 -15 -47 -20 -90 -21 -177
-1 -168 33 -267 122 -362 124 -132 369 -172 600 -97 94 31 96 36 100 259 3
177 3 187 -18 213 l-21 27 -150 0 c-136 0 -151 -2 -169 -20 -23 -23 -26 -68
-6 -96 12 -16 29 -20 110 -22 l96 -4 0 -113 0 -113 -72 -12 c-95 -16 -206 -8
-263 20 -105 51 -150 145 -150 315 0 129 17 191 70 253 56 65 112 87 225 87
94 0 96 -1 183 -48 81 -44 90 -47 115 -35 22 11 28 21 30 57 3 34 -2 49 -20
68 -29 31 -108 72 -173 89 -65 18 -225 17 -292 -1z"/>
<path d="M6587 2279 c-76 -26 -122 -56 -174 -112 -83 -90 -117 -192 -117 -352
-1 -222 86 -377 252 -451 67 -31 179 -48 251 -39 130 16 262 81 281 139 19 57
-16 110 -64 98 -12 -3 -55 -24 -96 -46 -72 -39 -79 -41 -165 -41 -104 0 -148
18 -207 83 -52 58 -72 126 -72 252 -1 132 18 200 74 263 54 61 110 82 215 81
67 -1 89 -5 135 -29 30 -15 62 -33 70 -40 29 -25 75 -28 94 -6 25 27 25 85 0
112 -86 95 -327 140 -477 88z"/>
<path d="M7940 2280 c-19 -19 -20 -33 -20 -464 0 -417 1 -445 19 -467 25 -31
92 -32 124 -1 l22 23 3 439 3 440 -25 25 c-32 32 -96 35 -126 5z"/>
<path d="M8290 2280 c-19 -19 -20 -33 -20 -464 0 -413 1 -445 18 -466 27 -34
99 -31 130 5 l23 27 -3 438 c-3 414 -4 439 -22 459 -26 29 -98 29 -126 1z"/>
<path d="M9323 2273 c-13 -16 -48 -80 -77 -143 -29 -63 -68 -146 -85 -185 -18
-38 -44 -95 -58 -125 -14 -30 -61 -131 -104 -224 -44 -92 -79 -176 -79 -186 0
-9 9 -29 21 -44 16 -20 29 -26 58 -26 48 0 59 13 107 120 21 47 41 89 44 93 7
7 479 12 485 5 1 -2 21 -47 45 -100 23 -53 48 -102 55 -108 41 -34 125 6 125
60 0 15 -42 116 -94 226 -51 109 -105 224 -119 254 -14 30 -43 93 -65 140 -22
47 -56 119 -75 162 -41 87 -65 108 -120 108 -30 0 -45 -6 -64 -27z m148 -353
c39 -85 76 -170 84 -187 l14 -33 -176 0 c-163 0 -175 1 -168 18 33 86 162 361
168 359 5 -1 40 -72 78 -157z"/>
<path d="M5874 2179 c-14 -16 -20 -40 -23 -100 l-3 -79 -49 0 c-57 0 -89 -24
-89 -67 0 -49 33 -73 98 -73 l40 0 4 -182 c3 -147 7 -191 21 -223 36 -81 82
-111 187 -124 109 -14 160 8 160 68 0 28 -37 51 -83 51 -57 0 -94 24 -107 68
-7 22 -10 98 -8 187 l3 150 76 5 c91 7 109 19 109 71 0 54 -25 69 -117 69
l-73 0 0 80 c0 67 -3 83 -20 100 -28 28 -100 28 -126 -1z"/>
<path d="M3976 1989 l-26 -20 0 -299 c0 -277 1 -299 19 -321 27 -34 97 -30
129 6 22 26 22 30 22 303 0 152 -3 287 -6 300 -7 26 -51 52 -87 52 -13 0 -36
-9 -51 -21z"/>
<path d="M4432 1990 c-128 -34 -169 -75 -141 -142 15 -36 43 -37 143 -3 45 15
97 25 131 25 49 0 60 -4 86 -29 22 -23 29 -39 29 -69 l0 -39 -112 -6 c-181
-10 -262 -42 -292 -117 -30 -75 -14 -154 42 -213 81 -86 239 -96 323 -20 l38
35 7 -26 c18 -73 129 -83 153 -14 14 40 14 342 0 427 -23 145 -89 199 -249
207 -64 3 -103 -1 -158 -16z m248 -399 c0 -75 -72 -141 -153 -141 -52 0 -97
43 -97 93 0 61 46 85 173 86 l77 1 0 -39z"/>
<path d="M5046 1989 l-26 -20 0 -299 c0 -277 1 -299 19 -321 27 -34 97 -30
129 6 21 25 22 34 22 213 0 210 7 238 69 279 47 32 129 32 166 1 37 -33 44
-79 45 -289 0 -165 2 -189 18 -209 25 -30 96 -30 126 0 20 20 21 31 21 254 l0
232 -30 60 c-23 45 -41 65 -73 82 -92 51 -229 36 -310 -33 l-42 -37 0 30 c0
37 -39 72 -80 72 -15 0 -39 -9 -54 -21z"/>
<path d="M7398 1996 c-91 -24 -155 -82 -200 -182 -19 -40 -23 -67 -23 -149 0
-87 3 -107 26 -156 34 -72 99 -133 169 -161 152 -59 410 6 410 104 0 41 -17
68 -43 68 -12 0 -56 -14 -96 -31 -63 -26 -84 -31 -138 -27 -75 5 -108 25 -140
88 -43 83 -50 80 182 80 195 0 206 1 226 21 19 19 21 29 15 83 -9 85 -56 179
-109 217 -76 55 -180 72 -279 45z m180 -136 c33 -20 62 -71 62 -110 0 -19 -6
-20 -150 -20 -113 0 -150 3 -150 13 1 31 42 98 72 117 44 27 122 27 166 0z"/>
<path d="M10122 1996 c-96 -24 -163 -95 -170 -180 -9 -111 51 -165 236 -209
108 -26 142 -46 142 -82 0 -40 -35 -59 -114 -63 -63 -4 -83 0 -150 27 -89 36
-99 37 -120 15 -29 -28 -20 -78 19 -113 49 -43 120 -61 242 -61 86 0 111 4
156 24 79 35 111 80 115 165 6 116 -33 149 -224 197 -147 37 -184 74 -129 129
37 37 124 35 216 -6 42 -18 78 -28 89 -24 21 7 36 46 31 80 -11 78 -203 136
-339 101z"/>
<path d="M10663 2000 c-12 -5 -26 -18 -32 -29 -7 -13 -11 -124 -11 -310 0
-278 1 -292 20 -311 31 -31 95 -30 123 2 15 18 17 49 17 318 l0 299 -26 20
c-28 22 -55 25 -91 11z"/>
<path d="M11135 1997 c-133 -28 -201 -85 -173 -144 12 -24 19 -28 53 -27 22 0
66 11 97 22 99 38 217 24 233 -27 3 -10 8 -35 10 -55 l5 -36 -58 0 c-75 -1
-186 -14 -242 -30 -128 -35 -168 -185 -78 -295 81 -97 272 -106 340 -15 l22
30 21 -42 c19 -41 23 -43 67 -46 76 -5 78 3 78 256 0 122 -5 232 -11 257 -14
56 -67 118 -119 139 -56 22 -172 28 -245 13z m217 -384 c7 -35 -14 -91 -47
-123 -42 -41 -119 -53 -161 -26 -55 37 -61 119 -11 144 38 19 50 20 134 21 70
1 82 -1 85 -16z"/>
</g>
</svg>
